<svg width="7" height="14" viewBox="0 0 7 14" fill="none" xmlns="http://www.w3.org/2000/svg">
<path d="M5.09332 3.01239H6.7017C6.84967 3.01239 6.96976 2.89923 6.96976 2.75979V1.24421C6.96976 1.10477 6.84967 0.991608 6.7017 0.991608H5.09332C3.46779 0.991608 2.14463 2.23793 2.14463 3.77018V5.53837H0.268185C0.120214 5.53837 0.00012207 5.65153 0.00012207 5.79097V7.30656C0.00012207 7.44599 0.120214 7.55915 0.268185 7.55915H2.14463V12.8637C2.14463 13.0031 2.26472 13.1163 2.41269 13.1163H4.02107C4.16904 13.1163 4.28913 13.0031 4.28913 12.8637V7.55915H6.16557C6.28084 7.55915 6.38324 7.48944 6.42023 7.38638L6.95636 5.87079C6.9837 5.794 6.96976 5.70913 6.91937 5.64295C6.86843 5.57727 6.78801 5.53837 6.7017 5.53837H4.28913V3.77018C4.28913 3.35239 4.64994 3.01239 5.09332 3.01239Z" fill="#292929"/>
</svg>
