<svg width="13" height="12" viewBox="0 0 13 12" fill="none" xmlns="http://www.w3.org/2000/svg">
<path d="M12.2202 2.25644C12.139 2.16465 12.0081 2.14157 11.9007 2.19818C11.8339 2.23336 11.7083 2.27952 11.5592 2.32514C11.7473 2.06792 11.8985 1.77993 11.9653 1.52106C11.9942 1.40949 11.952 1.29188 11.8601 1.22537C11.7682 1.15942 11.6458 1.15942 11.5539 1.22537C11.4091 1.32925 10.7102 1.64143 10.2683 1.74256C9.26957 0.842847 8.10738 0.749414 6.89924 1.4749C5.91712 2.06463 5.70338 3.26387 5.74506 3.99485C3.49709 3.77226 2.09979 2.55103 1.31324 1.5403C1.2582 1.4694 1.1695 1.43203 1.08614 1.43752C0.998509 1.44412 0.919427 1.49413 0.874542 1.57163C0.502641 2.21742 0.399513 2.93136 0.577449 3.63651C0.674699 4.02123 0.844619 4.36034 1.04179 4.63514C0.947213 4.58733 0.85584 4.52742 0.769811 4.45597C0.690729 4.38892 0.58012 4.37628 0.486611 4.4208C0.393635 4.46641 0.334323 4.56314 0.334323 4.66922C0.334323 5.88001 1.07065 6.68793 1.75834 7.11003C1.6472 7.09629 1.53125 7.07101 1.41423 7.03418C1.31377 7.00285 1.20476 7.03418 1.1353 7.11552C1.06584 7.19632 1.04927 7.31173 1.09255 7.41011C1.47888 8.28894 2.21093 8.89351 3.11664 9.1128C2.32581 9.59041 1.26728 9.82454 0.297988 9.70967C0.172418 9.69154 0.0527257 9.77343 0.0131845 9.89764C-0.0263567 10.0219 0.0254743 10.1582 0.136083 10.2219C1.60659 11.0711 2.93603 11.3744 4.08486 11.3744C5.75682 11.3744 7.04725 10.7325 7.83273 10.1955C9.95032 8.75006 11.2701 6.15481 11.0863 3.83272C11.4256 3.57495 11.9333 3.09899 12.248 2.5873C12.3132 2.48398 12.3014 2.34767 12.2202 2.25644Z" fill="#292929"/>
</svg>
