<svg width="9" height="9" viewBox="0 0 9 9" fill="none" xmlns="http://www.w3.org/2000/svg">
<path d="M7.08817 0.538498C6.03138 0.176512 4.70954 0.494486 3.91683 1.06466C3.88963 0.958342 3.79271 0.87922 3.67748 0.87922H1.2049C1.06841 0.87922 0.957642 0.989991 0.957642 1.12648V8.54422C0.957642 8.68071 1.06841 8.79148 1.2049 8.79148H3.67748C3.81397 8.79148 3.92474 8.68071 3.92474 8.54422V3.21334C4.32431 2.86915 4.8391 2.75937 5.26043 2.93839C5.6689 3.11097 5.90281 3.5323 5.90281 4.09358V8.54422C5.90281 8.68071 6.01358 8.79148 6.15007 8.79148H8.62265C8.75914 8.79148 8.86991 8.68071 8.86991 8.54422V3.5956C8.84172 1.56363 7.88582 0.811471 7.08817 0.538498Z" fill="#292929"/>
</svg>
